<svg version="1.1" xmlns="http://www.w3.org/2000/svg" xmlns:xlink="http://www.w3.org/1999/xlink" width="390" height="232"><defs><clipPath id="POGJUUiaHEXX"><path fill="none" stroke="none" d=" M 0 0 L 390 0 L 390 232 L 0 232 L 0 0 Z"/></clipPath></defs><g transform="scale(1,1)" clip-path="url(#POGJUUiaHEXX)"><g><rect fill="rgb(255,255,255)" stroke="none" x="0" y="0" width="390" height="232" fill-opacity="1"/><path fill="none" stroke="rgb(192,192,192)" paint-order="fill stroke markers" d=" M 200.5 0.5 L 200.5 192.5 M 366.5 0.5 L 366.5 192.5" stroke-opacity="1" stroke-linecap="round" stroke-linejoin="round" stroke-miterlimit="10"/><path fill="none" stroke="rgb(192,192,192)" paint-order="fill stroke markers" d="" stroke-opacity="0.23529411764705882" stroke-linecap="round" stroke-linejoin="round" stroke-miterlimit="10"/><path fill="none" stroke="rgb(192,192,192)" paint-order="fill stroke markers" d=" M 0.5 27.5 L 390.5 27.5 M 0.5 27.5 L 390.5 27.5" stroke-opacity="1" stroke-linecap="round" stroke-linejoin="round" stroke-miterlimit="10"/><path fill="none" stroke="rgb(192,192,192)" paint-order="fill stroke markers" d="" stroke-opacity="0.23529411764705882" stroke-linecap="round" stroke-linejoin="round" stroke-miterlimit="10"/><path fill="none" stroke="rgb(0,0,0)" paint-order="fill stroke markers" d=" M 35.5 2.5 L 35.5 192.5" stroke-opacity="1" stroke-miterlimit="10"/><path fill="none" stroke="rgb(0,0,0)" paint-order="fill stroke markers" d=" M 35.5 1.5 L 31.5 5.5" stroke-opacity="1" stroke-miterlimit="10"/><path fill="none" stroke="rgb(0,0,0)" paint-order="fill stroke markers" d=" M 35.5 1.5 L 39.5 5.5" stroke-opacity="1" stroke-miterlimit="10"/><g transform="scale(19,19)"><g transform="translate(19.57894736842105,9.865052631578948)"><path fill="rgb(0,0,0)" stroke="none" paint-order="stroke fill markers" d=" M 0.26 -0.229 L 0.46 0 L 0.377 0 L 0.227 -0.188 L 0.082 0 L 0 0 L 0.194 -0.229 L 0.006 -0.444 L 0.089 -0.444 L 0.227 -0.279 L 0.361 -0.444 L 0.443 -0.444 L 0.26 -0.229 Z"/></g></g><path fill="none" stroke="rgb(0,0,0)" paint-order="fill stroke markers" d=" M 0.5 192.5 L 388.5 192.5" stroke-opacity="1" stroke-miterlimit="10"/><path fill="none" stroke="rgb(0,0,0)" paint-order="fill stroke markers" d=" M 389.5 192.5 L 385.5 188.5" stroke-opacity="1" stroke-miterlimit="10"/><path fill="none" stroke="rgb(0,0,0)" paint-order="fill stroke markers" d=" M 389.5 192.5 L 385.5 196.5" stroke-opacity="1" stroke-miterlimit="10"/><text fill="rgb(0,0,0)" stroke="none" font-family="geogebra-serif, serif" font-size="12px" font-style="normal" font-weight="normal" text-decoration="normal" x="198" y="208" text-anchor="start" dominant-baseline="alphabetic" fill-opacity="1">1</text><text fill="none" stroke="rgb(255,255,255)" font-family="geogebra-serif, serif" font-size="12px" font-style="normal" font-weight="normal" text-decoration="normal" x="198" y="208" text-anchor="start" dominant-baseline="alphabetic" stroke-opacity="1" stroke-linejoin="bevel" stroke-miterlimit="10" stroke-width="3">1</text><text fill="rgb(0,0,0)" stroke="none" font-family="geogebra-serif, serif" font-size="12px" font-style="normal" font-weight="normal" text-decoration="normal" x="198" y="208" text-anchor="start" dominant-baseline="alphabetic" fill-opacity="1">1</text><text fill="rgb(0,0,0)" stroke="none" font-family="geogebra-serif, serif" font-size="12px" font-style="normal" font-weight="normal" text-decoration="normal" x="364" y="208" text-anchor="start" dominant-baseline="alphabetic" fill-opacity="1">2</text><text fill="none" stroke="rgb(255,255,255)" font-family="geogebra-serif, serif" font-size="12px" font-style="normal" font-weight="normal" text-decoration="normal" x="364" y="208" text-anchor="start" dominant-baseline="alphabetic" stroke-opacity="1" stroke-linejoin="bevel" stroke-miterlimit="10" stroke-width="3">2</text><text fill="rgb(0,0,0)" stroke="none" font-family="geogebra-serif, serif" font-size="12px" font-style="normal" font-weight="normal" text-decoration="normal" x="364" y="208" text-anchor="start" dominant-baseline="alphabetic" fill-opacity="1">2</text><g transform="scale(19,19)"><g transform="translate(2.210526315789474,1.486842105263158)"><path fill="rgb(0,0,0)" stroke="none" paint-order="stroke fill markers" d=" M 0.485 -0.315 L 0.183 -0.315 L 0.183 0 L 0.094 0 L 0.094 -0.6910000000000001 L 0.526 -0.6910000000000001 L 0.526 -0.626 L 0.35000000000000003 -0.626 Q 0.34400000000000003 -0.626 0.332 -0.6265000000000001 Q 0.32 -0.627 0.314 -0.627 L 0.183 -0.627 L 0.183 -0.376 L 0.485 -0.376 L 0.485 -0.315 Z"/></g><g transform="translate(2.779526315789474,1.486842105263158)"><path fill="rgb(0,0,0)" stroke="none" paint-order="stroke fill markers" d=" M 0.271 -0.75 L 0.332 -0.75 Q 0.244 -0.662 0.201 -0.541 Q 0.157 -0.41400000000000003 0.157 -0.25 Q 0.157 -0.158 0.1715 -0.078 Q 0.186 0.002 0.20400000000000001 0.051500000000000004 Q 0.222 0.101 0.2505 0.1465 Q 0.279 0.192 0.2945 0.21 Q 0.31 0.228 0.332 0.25 L 0.271 0.25 Q 0.079 0.074 0.079 -0.25 Q 0.079 -0.41000000000000003 0.126 -0.536 Q 0.14200000000000002 -0.579 0.162 -0.6155 Q 0.182 -0.652 0.20500000000000002 -0.6795 Q 0.228 -0.707 0.24 -0.7195 Q 0.252 -0.732 0.271 -0.75 Z"/></g><g transform="translate(3.1685263157894736,1.486842105263158)"><path fill="rgb(0,0,0)" stroke="none" paint-order="stroke fill markers" d=" M 0.26 -0.229 L 0.46 0 L 0.377 0 L 0.227 -0.188 L 0.082 0 L 0 0 L 0.194 -0.229 L 0.006 -0.444 L 0.089 -0.444 L 0.227 -0.279 L 0.361 -0.444 L 0.443 -0.444 L 0.26 -0.229 Z"/></g><g transform="translate(3.6295263157894735,1.486842105263158)"><path fill="rgb(0,0,0)" stroke="none" paint-order="stroke fill markers" d=" M 0.117 0.25 L 0.056 0.25 Q 0.14400000000000002 0.162 0.187 0.041 Q 0.231 -0.08600000000000001 0.231 -0.25 Q 0.231 -0.342 0.2165 -0.422 Q 0.202 -0.502 0.184 -0.5515 Q 0.166 -0.601 0.1375 -0.6465 Q 0.109 -0.6920000000000001 0.0935 -0.71 Q 0.078 -0.728 0.056 -0.75 L 0.117 -0.75 Q 0.309 -0.5740000000000001 0.309 -0.25 Q 0.309 -0.09 0.262 0.036000000000000004 Q 0.246 0.079 0.226 0.1155 Q 0.20600000000000002 0.152 0.183 0.1795 Q 0.16 0.20700000000000002 0.148 0.2195 Q 0.136 0.232 0.117 0.25 Z"/></g></g><text fill="rgb(0,0,0)" stroke="none" font-family="geogebra-serif, serif" font-size="12px" font-style="normal" font-weight="normal" text-decoration="normal" x="22" y="32" text-anchor="start" dominant-baseline="alphabetic" fill-opacity="1">1</text><text fill="none" stroke="rgb(255,255,255)" font-family="geogebra-serif, serif" font-size="12px" font-style="normal" font-weight="normal" text-decoration="normal" x="22" y="32" text-anchor="start" dominant-baseline="alphabetic" stroke-opacity="1" stroke-linejoin="bevel" stroke-miterlimit="10" stroke-width="3">1</text><text fill="rgb(0,0,0)" stroke="none" font-family="geogebra-serif, serif" font-size="12px" font-style="normal" font-weight="normal" text-decoration="normal" x="22" y="32" text-anchor="start" dominant-baseline="alphabetic" fill-opacity="1">1</text><text fill="rgb(0,0,0)" stroke="none" font-family="geogebra-serif, serif" font-size="12px" font-style="normal" font-weight="normal" text-decoration="normal" x="32" y="208" text-anchor="start" dominant-baseline="alphabetic" fill-opacity="1">0</text><text fill="none" stroke="rgb(255,255,255)" font-family="geogebra-serif, serif" font-size="12px" font-style="normal" font-weight="normal" text-decoration="normal" x="32" y="208" text-anchor="start" dominant-baseline="alphabetic" stroke-opacity="1" stroke-linejoin="bevel" stroke-miterlimit="10" stroke-width="3">0</text><text fill="rgb(0,0,0)" stroke="none" font-family="geogebra-serif, serif" font-size="12px" font-style="normal" font-weight="normal" text-decoration="normal" x="32" y="208" text-anchor="start" dominant-baseline="alphabetic" fill-opacity="1">0</text><path fill="none" stroke="rgb(0,0,0)" paint-order="fill stroke markers" d=" M 0 192.82937184078784 L 3.046875 192.82937184078784 L 6.09375 192.82937184078784 L 9.140625 192.82937184078784 L 12.187499999999996 192.82937184078784 L 15.234374999999996 192.82937184078784 L 18.281249999999996 192.82937184078784 L 21.328124999999996 192.82937184078784 L 24.374999999999996 192.82937184078784 L 27.421874999999996 192.82937184078784 L 30.468749999999996 192.82937184078784 L 33.515625 192.82937184078784 L 35.03906249999999 192.82937184078784 L 35.61035156249999 192.60716203873037 L 36.56249999999999 191.65502339651292 L 39.60937499999999 188.60859654165716 L 42.65624999999999 185.56360124461975 L 45.703125 182.5210702746232 L 48.74999999999999 179.4820355650658 L 51.796874999999986 176.44752786352115 L 54.84375 173.4185763821404 L 57.89062499999999 170.39620844857478 L 60.9375 167.38144915753762 L 63.98437499999999 164.3753210231235 L 67.03125 161.37884363200277 L 70.078125 158.3930332976091 L 73.12499999999999 155.41890271543681 L 76.171875 152.45746061956578 L 79.21874999999999 149.50971144052963 L 82.265625 146.57665496464352 L 85.3125 143.65928599490746 L 88.359375 140.75859401359932 L 91.40625 137.8755628466729 L 94.453125 135.01117033007424 L 97.5 132.1663879780895 L 100.546875 129.34218065383715 L 103.59375 126.53950624201583 L 106.640625 123.7593153240193 L 109.6875 121.00255085552824 L 112.734375 118.2701478466885 L 115.78125 115.56303304498438 L 118.828125 112.8821246209141 L 121.875 110.22833185657464 L 124.921875 107.60255483726093 L 127.96875 105.00568414618454 L 131.015625 102.43860056241508 L 134.0625 99.90217476214686 L 137.109375 97.3972670233923 L 140.15625 94.92472693420177 L 143.203125 92.48539310450951 L 146.24999999999997 90.08009288170258 L 149.296875 87.70964207001018 L 152.34375 85.37484465380768 L 155.390625 83.07649252492975 L 158.43749999999997 80.8153652140849 L 161.484375 78.59222962646251 L 164.53125 76.407839781622 L 167.578125 74.26293655775264 L 170.62499999999997 72.15824744039014 L 173.671875 70.09448627567588 L 176.71874999999997 68.07235302824228 L 179.765625 66.09253354380598 L 182.8125 64.1556993165502 L 185.85937499999997 62.26250726137425 L 188.90625 60.41359949108832 L 191.95312499999997 58.609603098628185 L 194.99999999999997 56.85112994436474 L 198.046875 55.138776448579506 L 201.09374999999997 53.47312338917732 L 204.140625 51.854735704703955 L 207.18749999999997 50.28416230273649 L 210.23437499999997 48.76193587371057 L 213.28125 47.288572710248104 L 216.32812499999997 45.86457253204668 L 219.375 44.49041831638979 L 222.42187499999997 43.166576134335884 L 225.46874999999997 41.893494992641195 L 228.515625 40.67160668147048 L 231.56249999999997 39.50132562794698 L 234.60937499999997 38.383048755591375 L 237.65625 37.317155349697515 L 240.70312499999997 36.304006928690484 L 243.75 35.34394712151058 L 246.79687499999997 34.43730155106485 L 249.84374999999997 33.58437772378588 L 252.890625 32.78546492533488 L 255.93749999999997 32.040834122484995 L 258.984375 31.35073787121749 L 262.03125 30.715410231062663 L 265.078125 30.135066685713923 L 268.125 29.609904069942303 L 271.171875 29.14010050283619 L 274.21875 28.725815327388716 L 277.265625 28.367189056453554 L 280.3125 28.06434332508715 L 283.359375 27.817380849294096 L 286.40625 27.62638539118859 L 289.453125 27.491421730585245 L 292.49999999999994 27.412535643027667 L 295.546875 27.389505985197246 L 298.59375 27.389505985197246 L 301.64062499999994 27.389505985197246 L 304.6875 27.389505985197246 L 307.734375 27.389505985197246 L 310.78124999999994 27.389505985197246 L 313.828125 27.389505985197246 L 316.87499999999994 27.389505985197246 L 319.921875 27.389505985197246 L 322.96875 27.389505985197246 L 326.01562499999994 27.389505985197246 L 329.0625 27.389505985197246 L 332.109375 27.389505985197246 L 335.15625 27.389505985197246 L 338.20312499999994 27.389505985197246 L 341.24999999999994 27.389505985197246 L 344.296875 27.389505985197246 L 347.34375 27.389505985197246 L 350.390625 27.389505985197246 L 353.43749999999994 27.389505985197246 L 356.48437499999994 27.389505985197246 L 359.53125 27.389505985197246 L 362.578125 27.389505985197246 L 365.625 27.389505985197246 L 368.67187499999994 27.389505985197246 L 371.71874999999994 27.389505985197246 L 374.765625 27.389505985197246 L 377.8125 27.389505985197246 L 380.859375 27.389505985197246 L 383.90624999999994 27.389505985197246 L 386.95312499999994 27.389505985197246 L 389.99999999999994 27.389505985197246" stroke-opacity="0.6980392156862745" stroke-linecap="round" stroke-linejoin="round" stroke-miterlimit="10" stroke-width="2.5"/></g></g></svg>