<svg version="1.1" xmlns="http://www.w3.org/2000/svg" xmlns:xlink="http://www.w3.org/1999/xlink" width="341" height="177"><defs><clipPath id="cVXbzoUrsPyH"><path fill="none" stroke="none" d=" M 0 0 L 341 0 L 341 177 L 0 177 L 0 0 Z"/></clipPath></defs><g transform="scale(1,1)" clip-path="url(#cVXbzoUrsPyH)"><g><rect fill="rgb(255,255,255)" stroke="none" x="0" y="0" width="341" height="177" fill-opacity="1"/><path fill="none" stroke="rgb(192,192,192)" paint-order="fill stroke markers" d=" M 59.5 0.5 L 59.5 148.5 M 92.5 0.5 L 92.5 148.5 M 126.5 0.5 L 126.5 148.5 M 160.5 0.5 L 160.5 148.5 M 194.5 0.5 L 194.5 148.5 M 228.5 0.5 L 228.5 148.5 M 262.5 0.5 L 262.5 148.5 M 296.5 0.5 L 296.5 148.5 M 330.5 0.5 L 330.5 148.5" stroke-opacity="1" stroke-linecap="round" stroke-linejoin="round" stroke-miterlimit="10"/><path fill="none" stroke="rgb(192,192,192)" paint-order="fill stroke markers" d="" stroke-opacity="0.23529411764705882" stroke-linecap="round" stroke-linejoin="round" stroke-miterlimit="10"/><path fill="none" stroke="rgb(192,192,192)" paint-order="fill stroke markers" d=" M 0.5 13.5 L 341.5 13.5 M 0.5 13.5 L 341.5 13.5 M 0.5 26.5 L 341.5 26.5 M 0.5 40.5 L 341.5 40.5 M 0.5 54.5 L 341.5 54.5 M 0.5 67.5 L 341.5 67.5 M 0.5 81.5 L 341.5 81.5 M 0.5 94.5 L 341.5 94.5 M 0.5 108.5 L 341.5 108.5 M 0.5 121.5 L 341.5 121.5 M 0.5 135.5 L 341.5 135.5" stroke-opacity="1" stroke-linecap="round" stroke-linejoin="round" stroke-miterlimit="10"/><path fill="none" stroke="rgb(192,192,192)" paint-order="fill stroke markers" d="" stroke-opacity="0.23529411764705882" stroke-linecap="round" stroke-linejoin="round" stroke-miterlimit="10"/><path fill="none" stroke="rgb(0,0,0)" paint-order="fill stroke markers" d=" M 25.5 2.5 L 25.5 148.5" stroke-opacity="1" stroke-miterlimit="10"/><path fill="none" stroke="rgb(0,0,0)" paint-order="fill stroke markers" d=" M 25.5 1.5 L 21.5 5.5" stroke-opacity="1" stroke-miterlimit="10"/><path fill="none" stroke="rgb(0,0,0)" paint-order="fill stroke markers" d=" M 25.5 1.5 L 29.5 5.5" stroke-opacity="1" stroke-miterlimit="10"/><g transform="scale(19,19)"><g transform="translate(17,7.549263157894737)"><path fill="rgb(0,0,0)" stroke="none" paint-order="stroke fill markers" d=" M 0.26 -0.229 L 0.46 0 L 0.377 0 L 0.227 -0.188 L 0.082 0 L 0 0 L 0.194 -0.229 L 0.006 -0.444 L 0.089 -0.444 L 0.227 -0.279 L 0.361 -0.444 L 0.443 -0.444 L 0.26 -0.229 Z"/></g></g><path fill="none" stroke="rgb(0,0,0)" paint-order="fill stroke markers" d=" M 0.5 148.5 L 339.5 148.5" stroke-opacity="1" stroke-miterlimit="10"/><path fill="none" stroke="rgb(0,0,0)" paint-order="fill stroke markers" d=" M 340.5 148.5 L 336.5 144.5" stroke-opacity="1" stroke-miterlimit="10"/><path fill="none" stroke="rgb(0,0,0)" paint-order="fill stroke markers" d=" M 340.5 148.5 L 336.5 152.5" stroke-opacity="1" stroke-miterlimit="10"/><text fill="rgb(0,0,0)" stroke="none" font-family="geogebra-serif, serif" font-size="12px" font-style="normal" font-weight="normal" text-decoration="normal" x="57" y="164" text-anchor="start" dominant-baseline="alphabetic" fill-opacity="1">1</text><text fill="none" stroke="rgb(255,255,255)" font-family="geogebra-serif, serif" font-size="12px" font-style="normal" font-weight="normal" text-decoration="normal" x="57" y="164" text-anchor="start" dominant-baseline="alphabetic" stroke-opacity="1" stroke-linejoin="bevel" stroke-miterlimit="10" stroke-width="3">1</text><text fill="rgb(0,0,0)" stroke="none" font-family="geogebra-serif, serif" font-size="12px" font-style="normal" font-weight="normal" text-decoration="normal" x="57" y="164" text-anchor="start" dominant-baseline="alphabetic" fill-opacity="1">1</text><text fill="rgb(0,0,0)" stroke="none" font-family="geogebra-serif, serif" font-size="12px" font-style="normal" font-weight="normal" text-decoration="normal" x="90" y="164" text-anchor="start" dominant-baseline="alphabetic" fill-opacity="1">2</text><text fill="none" stroke="rgb(255,255,255)" font-family="geogebra-serif, serif" font-size="12px" font-style="normal" font-weight="normal" text-decoration="normal" x="90" y="164" text-anchor="start" dominant-baseline="alphabetic" stroke-opacity="1" stroke-linejoin="bevel" stroke-miterlimit="10" stroke-width="3">2</text><text fill="rgb(0,0,0)" stroke="none" font-family="geogebra-serif, serif" font-size="12px" font-style="normal" font-weight="normal" text-decoration="normal" x="90" y="164" text-anchor="start" dominant-baseline="alphabetic" fill-opacity="1">2</text><text fill="rgb(0,0,0)" stroke="none" font-family="geogebra-serif, serif" font-size="12px" font-style="normal" font-weight="normal" text-decoration="normal" x="124" y="164" text-anchor="start" dominant-baseline="alphabetic" fill-opacity="1">3</text><text fill="none" stroke="rgb(255,255,255)" font-family="geogebra-serif, serif" font-size="12px" font-style="normal" font-weight="normal" text-decoration="normal" x="124" y="164" text-anchor="start" dominant-baseline="alphabetic" stroke-opacity="1" stroke-linejoin="bevel" stroke-miterlimit="10" stroke-width="3">3</text><text fill="rgb(0,0,0)" stroke="none" font-family="geogebra-serif, serif" font-size="12px" font-style="normal" font-weight="normal" text-decoration="normal" x="124" y="164" text-anchor="start" dominant-baseline="alphabetic" fill-opacity="1">3</text><text fill="rgb(0,0,0)" stroke="none" font-family="geogebra-serif, serif" font-size="12px" font-style="normal" font-weight="normal" text-decoration="normal" x="158" y="164" text-anchor="start" dominant-baseline="alphabetic" fill-opacity="1">4</text><text fill="none" stroke="rgb(255,255,255)" font-family="geogebra-serif, serif" font-size="12px" font-style="normal" font-weight="normal" text-decoration="normal" x="158" y="164" text-anchor="start" dominant-baseline="alphabetic" stroke-opacity="1" stroke-linejoin="bevel" stroke-miterlimit="10" stroke-width="3">4</text><text fill="rgb(0,0,0)" stroke="none" font-family="geogebra-serif, serif" font-size="12px" font-style="normal" font-weight="normal" text-decoration="normal" x="158" y="164" text-anchor="start" dominant-baseline="alphabetic" fill-opacity="1">4</text><text fill="rgb(0,0,0)" stroke="none" font-family="geogebra-serif, serif" font-size="12px" font-style="normal" font-weight="normal" text-decoration="normal" x="192" y="164" text-anchor="start" dominant-baseline="alphabetic" fill-opacity="1">5</text><text fill="none" stroke="rgb(255,255,255)" font-family="geogebra-serif, serif" font-size="12px" font-style="normal" font-weight="normal" text-decoration="normal" x="192" y="164" text-anchor="start" dominant-baseline="alphabetic" stroke-opacity="1" stroke-linejoin="bevel" stroke-miterlimit="10" stroke-width="3">5</text><text fill="rgb(0,0,0)" stroke="none" font-family="geogebra-serif, serif" font-size="12px" font-style="normal" font-weight="normal" text-decoration="normal" x="192" y="164" text-anchor="start" dominant-baseline="alphabetic" fill-opacity="1">5</text><text fill="rgb(0,0,0)" stroke="none" font-family="geogebra-serif, serif" font-size="12px" font-style="normal" font-weight="normal" text-decoration="normal" x="226" y="164" text-anchor="start" dominant-baseline="alphabetic" fill-opacity="1">6</text><text fill="none" stroke="rgb(255,255,255)" font-family="geogebra-serif, serif" font-size="12px" font-style="normal" font-weight="normal" text-decoration="normal" x="226" y="164" text-anchor="start" dominant-baseline="alphabetic" stroke-opacity="1" stroke-linejoin="bevel" stroke-miterlimit="10" stroke-width="3">6</text><text fill="rgb(0,0,0)" stroke="none" font-family="geogebra-serif, serif" font-size="12px" font-style="normal" font-weight="normal" text-decoration="normal" x="226" y="164" text-anchor="start" dominant-baseline="alphabetic" fill-opacity="1">6</text><text fill="rgb(0,0,0)" stroke="none" font-family="geogebra-serif, serif" font-size="12px" font-style="normal" font-weight="normal" text-decoration="normal" x="260" y="164" text-anchor="start" dominant-baseline="alphabetic" fill-opacity="1">7</text><text fill="none" stroke="rgb(255,255,255)" font-family="geogebra-serif, serif" font-size="12px" font-style="normal" font-weight="normal" text-decoration="normal" x="260" y="164" text-anchor="start" dominant-baseline="alphabetic" stroke-opacity="1" stroke-linejoin="bevel" stroke-miterlimit="10" stroke-width="3">7</text><text fill="rgb(0,0,0)" stroke="none" font-family="geogebra-serif, serif" font-size="12px" font-style="normal" font-weight="normal" text-decoration="normal" x="260" y="164" text-anchor="start" dominant-baseline="alphabetic" fill-opacity="1">7</text><text fill="rgb(0,0,0)" stroke="none" font-family="geogebra-serif, serif" font-size="12px" font-style="normal" font-weight="normal" text-decoration="normal" x="294" y="164" text-anchor="start" dominant-baseline="alphabetic" fill-opacity="1">8</text><text fill="none" stroke="rgb(255,255,255)" font-family="geogebra-serif, serif" font-size="12px" font-style="normal" font-weight="normal" text-decoration="normal" x="294" y="164" text-anchor="start" dominant-baseline="alphabetic" stroke-opacity="1" stroke-linejoin="bevel" stroke-miterlimit="10" stroke-width="3">8</text><text fill="rgb(0,0,0)" stroke="none" font-family="geogebra-serif, serif" font-size="12px" font-style="normal" font-weight="normal" text-decoration="normal" x="294" y="164" text-anchor="start" dominant-baseline="alphabetic" fill-opacity="1">8</text><text fill="rgb(0,0,0)" stroke="none" font-family="geogebra-serif, serif" font-size="12px" font-style="normal" font-weight="normal" text-decoration="normal" x="328" y="164" text-anchor="start" dominant-baseline="alphabetic" fill-opacity="1">9</text><text fill="none" stroke="rgb(255,255,255)" font-family="geogebra-serif, serif" font-size="12px" font-style="normal" font-weight="normal" text-decoration="normal" x="328" y="164" text-anchor="start" dominant-baseline="alphabetic" stroke-opacity="1" stroke-linejoin="bevel" stroke-miterlimit="10" stroke-width="3">9</text><text fill="rgb(0,0,0)" stroke="none" font-family="geogebra-serif, serif" font-size="12px" font-style="normal" font-weight="normal" text-decoration="normal" x="328" y="164" text-anchor="start" dominant-baseline="alphabetic" fill-opacity="1">9</text><g transform="scale(19,19)"><g transform="translate(1.6842105263157894,1.486842105263158)"><path fill="rgb(0,0,0)" stroke="none" paint-order="stroke fill markers" d=" M 0.485 -0.315 L 0.183 -0.315 L 0.183 0 L 0.094 0 L 0.094 -0.6910000000000001 L 0.526 -0.6910000000000001 L 0.526 -0.626 L 0.35000000000000003 -0.626 Q 0.34400000000000003 -0.626 0.332 -0.6265000000000001 Q 0.32 -0.627 0.314 -0.627 L 0.183 -0.627 L 0.183 -0.376 L 0.485 -0.376 L 0.485 -0.315 Z"/></g><g transform="translate(2.2532105263157893,1.123950105263158) scale(0.7,0.7)"><path fill="rgb(0,0,0)" stroke="none" paint-order="stroke fill markers" d=" M 0.261 -0.229 L 0.261 -0.229 L 0.275 -0.07100000000000001 Q 0.278 -0.034 0.249 -0.034 Q 0.231 -0.034 0.225 -0.05 Q 0.223 -0.055 0.224 -0.061 L 0.224 -0.066 L 0.23800000000000002 -0.23 L 0.112 -0.137 Q 0.1 -0.128 0.092 -0.128 Q 0.074 -0.128 0.067 -0.146 Q 0.065 -0.151 0.065 -0.156 Q 0.065 -0.17300000000000001 0.08600000000000001 -0.182 L 0.227 -0.25 L 0.08600000000000001 -0.317 Q 0.065 -0.326 0.065 -0.343 Q 0.065 -0.362 0.084 -0.369 Q 0.088 -0.371 0.092 -0.371 Q 0.098 -0.371 0.112 -0.361 L 0.23800000000000002 -0.269 L 0.224 -0.428 L 0.224 -0.439 Q 0.22 -0.455 0.23800000000000002 -0.462 L 0.23900000000000002 -0.463 L 0.24 -0.463 Q 0.245 -0.465 0.25 -0.465 Q 0.278 -0.465 0.275 -0.429 L 0.261 -0.269 L 0.387 -0.362 Q 0.399 -0.371 0.40700000000000003 -0.371 Q 0.425 -0.371 0.432 -0.353 Q 0.434 -0.34800000000000003 0.434 -0.343 Q 0.434 -0.326 0.41300000000000003 -0.317 L 0.271 -0.249 L 0.41600000000000004 -0.181 Q 0.434 -0.17200000000000001 0.434 -0.156 Q 0.434 -0.137 0.41500000000000004 -0.13 Q 0.41100000000000003 -0.128 0.40700000000000003 -0.128 Q 0.399 -0.128 0.37 -0.15 L 0.261 -0.229 Z"/></g><g transform="translate(2.629428000260526,1.486842105263158)"><path fill="rgb(0,0,0)" stroke="none" paint-order="stroke fill markers" d=" M 0.271 -0.75 L 0.332 -0.75 Q 0.244 -0.662 0.201 -0.541 Q 0.157 -0.41400000000000003 0.157 -0.25 Q 0.157 -0.158 0.1715 -0.078 Q 0.186 0.002 0.20400000000000001 0.051500000000000004 Q 0.222 0.101 0.2505 0.1465 Q 0.279 0.192 0.2945 0.21 Q 0.31 0.228 0.332 0.25 L 0.271 0.25 Q 0.079 0.074 0.079 -0.25 Q 0.079 -0.41000000000000003 0.126 -0.536 Q 0.14200000000000002 -0.579 0.162 -0.6155 Q 0.182 -0.652 0.20500000000000002 -0.6795 Q 0.228 -0.707 0.24 -0.7195 Q 0.252 -0.732 0.271 -0.75 Z"/></g><g transform="translate(3.018428000260526,1.486842105263158)"><path fill="rgb(0,0,0)" stroke="none" paint-order="stroke fill markers" d=" M 0.26 -0.229 L 0.46 0 L 0.377 0 L 0.227 -0.188 L 0.082 0 L 0 0 L 0.194 -0.229 L 0.006 -0.444 L 0.089 -0.444 L 0.227 -0.279 L 0.361 -0.444 L 0.443 -0.444 L 0.26 -0.229 Z"/></g><g transform="translate(3.479428000260526,1.486842105263158)"><path fill="rgb(0,0,0)" stroke="none" paint-order="stroke fill markers" d=" M 0.117 0.25 L 0.056 0.25 Q 0.14400000000000002 0.162 0.187 0.041 Q 0.231 -0.08600000000000001 0.231 -0.25 Q 0.231 -0.342 0.2165 -0.422 Q 0.202 -0.502 0.184 -0.5515 Q 0.166 -0.601 0.1375 -0.6465 Q 0.109 -0.6920000000000001 0.0935 -0.71 Q 0.078 -0.728 0.056 -0.75 L 0.117 -0.75 Q 0.309 -0.5740000000000001 0.309 -0.25 Q 0.309 -0.09 0.262 0.036000000000000004 Q 0.246 0.079 0.226 0.1155 Q 0.20600000000000002 0.152 0.183 0.1795 Q 0.16 0.20700000000000002 0.148 0.2195 Q 0.136 0.232 0.117 0.25 Z"/></g></g><text fill="rgb(0,0,0)" stroke="none" font-family="geogebra-serif, serif" font-size="12px" font-style="normal" font-weight="normal" text-decoration="normal" x="3" y="126" text-anchor="start" dominant-baseline="alphabetic" fill-opacity="1">0.2</text><text fill="none" stroke="rgb(255,255,255)" font-family="geogebra-serif, serif" font-size="12px" font-style="normal" font-weight="normal" text-decoration="normal" x="3" y="126" text-anchor="start" dominant-baseline="alphabetic" stroke-opacity="1" stroke-linejoin="bevel" stroke-miterlimit="10" stroke-width="3">0.2</text><text fill="rgb(0,0,0)" stroke="none" font-family="geogebra-serif, serif" font-size="12px" font-style="normal" font-weight="normal" text-decoration="normal" x="3" y="126" text-anchor="start" dominant-baseline="alphabetic" fill-opacity="1">0.2</text><text fill="rgb(0,0,0)" stroke="none" font-family="geogebra-serif, serif" font-size="12px" font-style="normal" font-weight="normal" text-decoration="normal" x="3" y="99" text-anchor="start" dominant-baseline="alphabetic" fill-opacity="1">0.4</text><text fill="none" stroke="rgb(255,255,255)" font-family="geogebra-serif, serif" font-size="12px" font-style="normal" font-weight="normal" text-decoration="normal" x="3" y="99" text-anchor="start" dominant-baseline="alphabetic" stroke-opacity="1" stroke-linejoin="bevel" stroke-miterlimit="10" stroke-width="3">0.4</text><text fill="rgb(0,0,0)" stroke="none" font-family="geogebra-serif, serif" font-size="12px" font-style="normal" font-weight="normal" text-decoration="normal" x="3" y="99" text-anchor="start" dominant-baseline="alphabetic" fill-opacity="1">0.4</text><text fill="rgb(0,0,0)" stroke="none" font-family="geogebra-serif, serif" font-size="12px" font-style="normal" font-weight="normal" text-decoration="normal" x="3" y="72" text-anchor="start" dominant-baseline="alphabetic" fill-opacity="1">0.6</text><text fill="none" stroke="rgb(255,255,255)" font-family="geogebra-serif, serif" font-size="12px" font-style="normal" font-weight="normal" text-decoration="normal" x="3" y="72" text-anchor="start" dominant-baseline="alphabetic" stroke-opacity="1" stroke-linejoin="bevel" stroke-miterlimit="10" stroke-width="3">0.6</text><text fill="rgb(0,0,0)" stroke="none" font-family="geogebra-serif, serif" font-size="12px" font-style="normal" font-weight="normal" text-decoration="normal" x="3" y="72" text-anchor="start" dominant-baseline="alphabetic" fill-opacity="1">0.6</text><text fill="rgb(0,0,0)" stroke="none" font-family="geogebra-serif, serif" font-size="12px" font-style="normal" font-weight="normal" text-decoration="normal" x="3" y="45" text-anchor="start" dominant-baseline="alphabetic" fill-opacity="1">0.8</text><text fill="none" stroke="rgb(255,255,255)" font-family="geogebra-serif, serif" font-size="12px" font-style="normal" font-weight="normal" text-decoration="normal" x="3" y="45" text-anchor="start" dominant-baseline="alphabetic" stroke-opacity="1" stroke-linejoin="bevel" stroke-miterlimit="10" stroke-width="3">0.8</text><text fill="rgb(0,0,0)" stroke="none" font-family="geogebra-serif, serif" font-size="12px" font-style="normal" font-weight="normal" text-decoration="normal" x="3" y="45" text-anchor="start" dominant-baseline="alphabetic" fill-opacity="1">0.8</text><text fill="rgb(0,0,0)" stroke="none" font-family="geogebra-serif, serif" font-size="12px" font-style="normal" font-weight="normal" text-decoration="normal" x="12" y="18" text-anchor="start" dominant-baseline="alphabetic" fill-opacity="1">1</text><text fill="none" stroke="rgb(255,255,255)" font-family="geogebra-serif, serif" font-size="12px" font-style="normal" font-weight="normal" text-decoration="normal" x="12" y="18" text-anchor="start" dominant-baseline="alphabetic" stroke-opacity="1" stroke-linejoin="bevel" stroke-miterlimit="10" stroke-width="3">1</text><text fill="rgb(0,0,0)" stroke="none" font-family="geogebra-serif, serif" font-size="12px" font-style="normal" font-weight="normal" text-decoration="normal" x="12" y="18" text-anchor="start" dominant-baseline="alphabetic" fill-opacity="1">1</text><text fill="rgb(0,0,0)" stroke="none" font-family="geogebra-serif, serif" font-size="12px" font-style="normal" font-weight="normal" text-decoration="normal" x="22" y="164" text-anchor="start" dominant-baseline="alphabetic" fill-opacity="1">0</text><text fill="none" stroke="rgb(255,255,255)" font-family="geogebra-serif, serif" font-size="12px" font-style="normal" font-weight="normal" text-decoration="normal" x="22" y="164" text-anchor="start" dominant-baseline="alphabetic" stroke-opacity="1" stroke-linejoin="bevel" stroke-miterlimit="10" stroke-width="3">0</text><text fill="rgb(0,0,0)" stroke="none" font-family="geogebra-serif, serif" font-size="12px" font-style="normal" font-weight="normal" text-decoration="normal" x="22" y="164" text-anchor="start" dominant-baseline="alphabetic" fill-opacity="1">0</text><path fill="none" stroke="rgb(0,0,0)" paint-order="fill stroke markers" d=" M 0 148.95126450254142 L 2.6640625 148.95126450254142 L 5.328125 148.95126450254142 L 7.9921875 148.95126450254142 L 10.656249999999998 148.95126450254142 L 13.320312499999998 148.95126450254142 L 15.984374999999998 148.95126450254142 L 18.6484375 148.95126450254142 L 21.3125 148.95126450254142 L 23.9765625 148.95126450254142 L 26.640625 148.95126450254142 L 29.3046875 148.95126450254142 L 31.96875 148.95126450254142 L 34.6328125 148.95126450254142 L 37.296875 148.95126450254142 L 39.96093749999999 148.95126450254142 L 42.625 148.95126450254142 L 45.2890625 148.95126450254142 L 47.953125 148.95126450254142 L 50.61718749999999 148.95126450254142 L 53.28125 148.95126450254142 L 55.9453125 148.95126450254142 L 58.609375 148.95126450254142 L 61.27343749999999 148.95126450254142 L 63.9375 148.95126450254142 L 66.6015625 148.95126450254142 L 69.265625 148.95126450254142 L 71.9296875 148.95126450254142 L 74.59375 148.95126450254142 L 77.2578125 148.95126450254142 L 79.921875 148.95126450254142 L 82.5859375 148.95126450254142 L 85.25 148.95126450254142 L 87.9140625 148.95126450254142 L 90.578125 148.95126450254142 L 91.91015625 148.95126450254142 L 92.576171875 148.95126450254142 M 92.97161865234375 135.39247067843252 L 92.97682189941406 135.39247067843252 L 95.90625 135.39247067843252 L 98.5703125 135.39247067843252 L 101.234375 135.39247067843252 L 103.8984375 135.39247067843252 L 106.5625 135.39247067843252 L 109.2265625 135.39247067843252 L 111.890625 135.39247067843252 L 114.5546875 135.39247067843252 L 117.21875 135.39247067843252 L 119.8828125 135.39247067843252 L 122.546875 135.39247067843252 L 125.2109375 135.39247067843252 L 127.875 135.39247067843252 L 130.5390625 135.39247067843252 L 133.203125 135.39247067843252 L 135.8671875 135.39247067843252 L 138.53125 135.39247067843252 L 141.1953125 135.39247067843252 L 143.859375 135.39247067843252 L 146.5234375 135.39247067843252 L 149.1875 135.39247067843252 L 151.8515625 135.39247067843252 L 154.515625 135.39247067843252 L 157.1796875 135.39247067843252 L 159.84374999999997 135.39247067843252 L 162.50781249999997 135.39247067843252 L 165.17187499999997 135.39247067843252 L 167.8359375 135.39247067843252 L 170.5 135.39247067843252 L 173.1640625 135.39247067843252 L 175.828125 135.39247067843252 L 178.4921875 135.39247067843252 L 181.15625 135.39247067843252 L 183.82031249999997 135.39247067843252 L 186.48437499999997 135.39247067843252 L 189.1484375 135.39247067843252 L 191.8125 135.39247067843252 L 194.4765625 135.39247067843252 M 194.6586761474609 94.71608920610575 L 194.66387939453125 94.71608920610575 L 195.80859374999997 94.71608920610575 L 197.140625 94.71608920610575 L 199.8046875 94.71608920610575 L 202.46874999999997 94.71608920610575 L 205.13281249999997 94.71608920610575 L 207.79687499999997 94.71608920610575 L 210.4609375 94.71608920610575 L 213.125 94.71608920610575 L 215.7890625 94.71608920610575 L 218.453125 94.71608920610575 L 221.1171875 94.71608920610575 L 223.78125 94.71608920610575 L 226.44531249999997 94.71608920610575 L 229.10937499999997 94.71608920610575 L 231.7734375 94.71608920610575 L 234.4375 94.71608920610575 L 237.1015625 94.71608920610575 L 239.765625 94.71608920610575 L 242.4296875 94.71608920610575 L 245.09374999999997 94.71608920610575 L 247.75781249999997 94.71608920610575 L 250.42187499999997 94.71608920610575 L 253.0859375 94.71608920610575 L 255.75 94.71608920610575 L 258.4140625 94.71608920610575 L 261.078125 94.71608920610575 L 262.41015625 94.71608920610575 M 262.4517822265625 67.59850155788793 L 262.4569854736328 67.59850155788793 L 263.076171875 67.59850155788793 L 263.7421875 67.59850155788793 L 266.40625 67.59850155788793 L 269.0703125 67.59850155788793 L 271.734375 67.59850155788793 L 274.3984375 67.59850155788793 L 277.06250000000006 67.59850155788793 L 279.7265625 67.59850155788793 L 282.39062499999994 67.59850155788793 L 285.0546875 67.59850155788793 L 287.71875 67.59850155788793 L 290.3828125 67.59850155788793 L 293.046875 67.59850155788793 L 295.7109375 67.59850155788793 L 296.29370117187494 67.59850155788793 M 296.3509368896485 13.363326261452272 L 296.35614013671875 13.363326261452272 L 297.04296875 13.363326261452272 L 298.375 13.363326261452272 L 301.0390625 13.363326261452272 L 303.70312499999994 13.363326261452272 L 306.36718749999994 13.363326261452272 L 309.03125000000006 13.363326261452272 L 311.6953125 13.363326261452272 L 314.359375 13.363326261452272 L 317.02343749999994 13.363326261452272 L 319.68749999999994 13.363326261452272 L 322.3515625 13.363326261452272 L 325.015625 13.363326261452272 L 327.67968749999994 13.363326261452272 L 330.34374999999994 13.363326261452272 L 333.00781250000006 13.363326261452272 L 335.671875 13.363326261452272 L 338.3359375 13.363326261452272 L 340.99999999999994 13.363326261452272" stroke-opacity="0.6980392156862745" stroke-linecap="round" stroke-linejoin="round" stroke-miterlimit="10" stroke-width="2.5"/></g></g></svg>