<svg version="1.1" xmlns="http://www.w3.org/2000/svg" xmlns:xlink="http://www.w3.org/1999/xlink" width="305" height="357"><defs><clipPath id="KsvkmaGocpCb"><path fill="none" stroke="none" d=" M 0 0 L 305 0 L 305 357 L 0 357 L 0 0 Z"/></clipPath></defs><g transform="scale(1,1)" clip-path="url(#KsvkmaGocpCb)"><g><rect fill="rgb(255,255,255)" stroke="none" x="0" y="0" width="305" height="357" fill-opacity="1"/><path fill="none" stroke="rgb(192,192,192)" paint-order="fill stroke markers" d=" M -2.5 0.5 L -2.5 318.5 M -2.5 0.5 L -2.5 318.5 M 53.5 0.5 L 53.5 318.5 M 109.5 0.5 L 109.5 318.5 M 166.5 0.5 L 166.5 318.5 M 222.5 0.5 L 222.5 318.5 M 279.5 0.5 L 279.5 318.5" stroke-opacity="1" stroke-linecap="round" stroke-linejoin="round" stroke-miterlimit="10"/><path fill="none" stroke="rgb(192,192,192)" paint-order="fill stroke markers" d="" stroke-opacity="0.23529411764705882" stroke-linecap="round" stroke-linejoin="round" stroke-miterlimit="10"/><path fill="none" stroke="rgb(192,192,192)" paint-order="fill stroke markers" d=" M 0.5 36.5 L 305.5 36.5 M 0.5 36.5 L 305.5 36.5 M 0.5 92.5 L 305.5 92.5 M 0.5 149.5 L 305.5 149.5 M 0.5 205.5 L 305.5 205.5 M 0.5 261.5 L 305.5 261.5" stroke-opacity="1" stroke-linecap="round" stroke-linejoin="round" stroke-miterlimit="10"/><path fill="none" stroke="rgb(192,192,192)" paint-order="fill stroke markers" d="" stroke-opacity="0.23529411764705882" stroke-linecap="round" stroke-linejoin="round" stroke-miterlimit="10"/><g transform="scale(19,19)"><g transform="translate(14.947368421052632,16.338736842105263)"><path fill="rgb(0,0,0)" stroke="none" paint-order="stroke fill markers" d=" M 0.26 -0.229 L 0.46 0 L 0.377 0 L 0.227 -0.188 L 0.082 0 L 0 0 L 0.194 -0.229 L 0.006 -0.444 L 0.089 -0.444 L 0.227 -0.279 L 0.361 -0.444 L 0.443 -0.444 L 0.26 -0.229 Z"/></g><g transform="translate(15.408368421052632,16.48873684210526) scale(0.7,0.7)"><path fill="rgb(0,0,0)" stroke="none" paint-order="stroke fill markers" d=" M 0.163 -0.68 L 0.163 -0.591 L 0.074 -0.591 L 0.074 -0.68 L 0.163 -0.68 M 0.156 -0.444 L 0.156 0 L 0.081 0 L 0.081 -0.444 L 0.156 -0.444 Z"/></g></g><path fill="none" stroke="rgb(0,0,0)" paint-order="fill stroke markers" d=" M 0.5 318.5 L 303.5 318.5" stroke-opacity="1" stroke-miterlimit="10"/><path fill="none" stroke="rgb(0,0,0)" paint-order="fill stroke markers" d=" M 304.5 318.5 L 300.5 314.5" stroke-opacity="1" stroke-miterlimit="10"/><path fill="none" stroke="rgb(0,0,0)" paint-order="fill stroke markers" d=" M 304.5 318.5 L 300.5 322.5" stroke-opacity="1" stroke-miterlimit="10"/><text fill="rgb(0,0,0)" stroke="none" font-family="geogebra-serif, serif" font-size="12px" font-style="normal" font-weight="normal" text-decoration="normal" x="48" y="334" text-anchor="start" dominant-baseline="alphabetic" fill-opacity="1">25</text><text fill="none" stroke="rgb(255,255,255)" font-family="geogebra-serif, serif" font-size="12px" font-style="normal" font-weight="normal" text-decoration="normal" x="48" y="334" text-anchor="start" dominant-baseline="alphabetic" stroke-opacity="1" stroke-linejoin="bevel" stroke-miterlimit="10" stroke-width="3">25</text><text fill="rgb(0,0,0)" stroke="none" font-family="geogebra-serif, serif" font-size="12px" font-style="normal" font-weight="normal" text-decoration="normal" x="48" y="334" text-anchor="start" dominant-baseline="alphabetic" fill-opacity="1">25</text><text fill="rgb(0,0,0)" stroke="none" font-family="geogebra-serif, serif" font-size="12px" font-style="normal" font-weight="normal" text-decoration="normal" x="104" y="334" text-anchor="start" dominant-baseline="alphabetic" fill-opacity="1">30</text><text fill="none" stroke="rgb(255,255,255)" font-family="geogebra-serif, serif" font-size="12px" font-style="normal" font-weight="normal" text-decoration="normal" x="104" y="334" text-anchor="start" dominant-baseline="alphabetic" stroke-opacity="1" stroke-linejoin="bevel" stroke-miterlimit="10" stroke-width="3">30</text><text fill="rgb(0,0,0)" stroke="none" font-family="geogebra-serif, serif" font-size="12px" font-style="normal" font-weight="normal" text-decoration="normal" x="104" y="334" text-anchor="start" dominant-baseline="alphabetic" fill-opacity="1">30</text><text fill="rgb(0,0,0)" stroke="none" font-family="geogebra-serif, serif" font-size="12px" font-style="normal" font-weight="normal" text-decoration="normal" x="161" y="334" text-anchor="start" dominant-baseline="alphabetic" fill-opacity="1">35</text><text fill="none" stroke="rgb(255,255,255)" font-family="geogebra-serif, serif" font-size="12px" font-style="normal" font-weight="normal" text-decoration="normal" x="161" y="334" text-anchor="start" dominant-baseline="alphabetic" stroke-opacity="1" stroke-linejoin="bevel" stroke-miterlimit="10" stroke-width="3">35</text><text fill="rgb(0,0,0)" stroke="none" font-family="geogebra-serif, serif" font-size="12px" font-style="normal" font-weight="normal" text-decoration="normal" x="161" y="334" text-anchor="start" dominant-baseline="alphabetic" fill-opacity="1">35</text><text fill="rgb(0,0,0)" stroke="none" font-family="geogebra-serif, serif" font-size="12px" font-style="normal" font-weight="normal" text-decoration="normal" x="217" y="334" text-anchor="start" dominant-baseline="alphabetic" fill-opacity="1">40</text><text fill="none" stroke="rgb(255,255,255)" font-family="geogebra-serif, serif" font-size="12px" font-style="normal" font-weight="normal" text-decoration="normal" x="217" y="334" text-anchor="start" dominant-baseline="alphabetic" stroke-opacity="1" stroke-linejoin="bevel" stroke-miterlimit="10" stroke-width="3">40</text><text fill="rgb(0,0,0)" stroke="none" font-family="geogebra-serif, serif" font-size="12px" font-style="normal" font-weight="normal" text-decoration="normal" x="217" y="334" text-anchor="start" dominant-baseline="alphabetic" fill-opacity="1">40</text><text fill="rgb(0,0,0)" stroke="none" font-family="geogebra-serif, serif" font-size="12px" font-style="normal" font-weight="normal" text-decoration="normal" x="274" y="334" text-anchor="start" dominant-baseline="alphabetic" fill-opacity="1">45</text><text fill="none" stroke="rgb(255,255,255)" font-family="geogebra-serif, serif" font-size="12px" font-style="normal" font-weight="normal" text-decoration="normal" x="274" y="334" text-anchor="start" dominant-baseline="alphabetic" stroke-opacity="1" stroke-linejoin="bevel" stroke-miterlimit="10" stroke-width="3">45</text><text fill="rgb(0,0,0)" stroke="none" font-family="geogebra-serif, serif" font-size="12px" font-style="normal" font-weight="normal" text-decoration="normal" x="274" y="334" text-anchor="start" dominant-baseline="alphabetic" fill-opacity="1">45</text><text fill="rgb(0,0,0)" stroke="none" font-family="geogebra-serif, serif" font-size="12px" font-style="normal" font-weight="normal" text-decoration="normal" x="3" y="266" text-anchor="start" dominant-baseline="alphabetic" fill-opacity="1">10</text><text fill="none" stroke="rgb(255,255,255)" font-family="geogebra-serif, serif" font-size="12px" font-style="normal" font-weight="normal" text-decoration="normal" x="3" y="266" text-anchor="start" dominant-baseline="alphabetic" stroke-opacity="1" stroke-linejoin="bevel" stroke-miterlimit="10" stroke-width="3">10</text><text fill="rgb(0,0,0)" stroke="none" font-family="geogebra-serif, serif" font-size="12px" font-style="normal" font-weight="normal" text-decoration="normal" x="3" y="266" text-anchor="start" dominant-baseline="alphabetic" fill-opacity="1">10</text><text fill="rgb(0,0,0)" stroke="none" font-family="geogebra-serif, serif" font-size="12px" font-style="normal" font-weight="normal" text-decoration="normal" x="3" y="210" text-anchor="start" dominant-baseline="alphabetic" fill-opacity="1">20</text><text fill="none" stroke="rgb(255,255,255)" font-family="geogebra-serif, serif" font-size="12px" font-style="normal" font-weight="normal" text-decoration="normal" x="3" y="210" text-anchor="start" dominant-baseline="alphabetic" stroke-opacity="1" stroke-linejoin="bevel" stroke-miterlimit="10" stroke-width="3">20</text><text fill="rgb(0,0,0)" stroke="none" font-family="geogebra-serif, serif" font-size="12px" font-style="normal" font-weight="normal" text-decoration="normal" x="3" y="210" text-anchor="start" dominant-baseline="alphabetic" fill-opacity="1">20</text><text fill="rgb(0,0,0)" stroke="none" font-family="geogebra-serif, serif" font-size="12px" font-style="normal" font-weight="normal" text-decoration="normal" x="3" y="154" text-anchor="start" dominant-baseline="alphabetic" fill-opacity="1">30</text><text fill="none" stroke="rgb(255,255,255)" font-family="geogebra-serif, serif" font-size="12px" font-style="normal" font-weight="normal" text-decoration="normal" x="3" y="154" text-anchor="start" dominant-baseline="alphabetic" stroke-opacity="1" stroke-linejoin="bevel" stroke-miterlimit="10" stroke-width="3">30</text><text fill="rgb(0,0,0)" stroke="none" font-family="geogebra-serif, serif" font-size="12px" font-style="normal" font-weight="normal" text-decoration="normal" x="3" y="154" text-anchor="start" dominant-baseline="alphabetic" fill-opacity="1">30</text><text fill="rgb(0,0,0)" stroke="none" font-family="geogebra-serif, serif" font-size="12px" font-style="normal" font-weight="normal" text-decoration="normal" x="3" y="97" text-anchor="start" dominant-baseline="alphabetic" fill-opacity="1">40</text><text fill="none" stroke="rgb(255,255,255)" font-family="geogebra-serif, serif" font-size="12px" font-style="normal" font-weight="normal" text-decoration="normal" x="3" y="97" text-anchor="start" dominant-baseline="alphabetic" stroke-opacity="1" stroke-linejoin="bevel" stroke-miterlimit="10" stroke-width="3">40</text><text fill="rgb(0,0,0)" stroke="none" font-family="geogebra-serif, serif" font-size="12px" font-style="normal" font-weight="normal" text-decoration="normal" x="3" y="97" text-anchor="start" dominant-baseline="alphabetic" fill-opacity="1">40</text><text fill="rgb(0,0,0)" stroke="none" font-family="geogebra-serif, serif" font-size="12px" font-style="normal" font-weight="normal" text-decoration="normal" x="3" y="41" text-anchor="start" dominant-baseline="alphabetic" fill-opacity="1">50</text><text fill="none" stroke="rgb(255,255,255)" font-family="geogebra-serif, serif" font-size="12px" font-style="normal" font-weight="normal" text-decoration="normal" x="3" y="41" text-anchor="start" dominant-baseline="alphabetic" stroke-opacity="1" stroke-linejoin="bevel" stroke-miterlimit="10" stroke-width="3">50</text><text fill="rgb(0,0,0)" stroke="none" font-family="geogebra-serif, serif" font-size="12px" font-style="normal" font-weight="normal" text-decoration="normal" x="3" y="41" text-anchor="start" dominant-baseline="alphabetic" fill-opacity="1">50</text><path fill="none" stroke="rgb(153,51,0)" paint-order="fill stroke markers" d=" M 37.671477242159455 290.22435398388154 L 94.14816882536522 205.50931660907275 L 150.62486040857098 36.07924185945524 L 207.10155199177674 233.74766240067567 L 263.5782435749825 261.98600819227863" stroke-opacity="0.6980392156862745" stroke-linecap="round" stroke-linejoin="round" stroke-miterlimit="10" stroke-width="2.5"/><g transform="scale(19,19)"><g transform="translate(8.789473684210526,9.167842105263157)"><path fill="rgb(153,51,0)" stroke="none" paint-order="stroke fill markers" d=" M 0.088 -0.059000000000000004 L 0.088 -0.059000000000000004 L 0.146 -0.29 Q 0.162 -0.354 0.162 -0.374 Q 0.162 -0.42 0.131 -0.42 Q 0.09 -0.42 0.064 -0.325 Q 0.061 -0.314 0.058 -0.301 Q 0.047 -0.279 0.041 -0.278 Q 0.029 -0.278 0.029 -0.28800000000000003 Q 0.029 -0.304 0.049 -0.36 L 0.049 -0.361 Q 0.049 -0.362 0.05 -0.362 L 0.05 -0.363 L 0.05 -0.364 L 0.059000000000000004 -0.385 Q 0.081 -0.425 0.10400000000000001 -0.435 Q 0.11800000000000001 -0.442 0.134 -0.442 Q 0.19 -0.442 0.215 -0.395 Q 0.224 -0.377 0.226 -0.355 Q 0.29 -0.442 0.382 -0.442 Q 0.468 -0.442 0.491 -0.376 Q 0.497 -0.358 0.497 -0.335 Q 0.497 -0.28400000000000003 0.436 -0.115 Q 0.418 -0.07100000000000001 0.418 -0.044 Q 0.418 -0.011 0.442 -0.011 Q 0.508 -0.011 0.544 -0.135 Q 0.549 -0.151 0.554 -0.152 L 0.554 -0.153 L 0.559 -0.153 Q 0.5710000000000001 -0.153 0.5710000000000001 -0.14300000000000002 Q 0.5710000000000001 -0.126 0.55 -0.08 Q 0.507 0.011 0.44 0.011 Q 0.389 0.011 0.367 -0.032 Q 0.358 -0.05 0.358 -0.07100000000000001 Q 0.358 -0.091 0.368 -0.117 Q 0.433 -0.292 0.433 -0.35000000000000003 Q 0.433 -0.42 0.379 -0.42 Q 0.289 -0.42 0.228 -0.32 Q 0.221 -0.309 0.216 -0.298 L 0.203 -0.248 Q 0.198 -0.225 0.186 -0.181 L 0.164 -0.091 Q 0.147 -0.022 0.145 -0.017 Q 0.136 0.009000000000000001 0.108 0.011 Q 0.083 0.006 0.079 -0.016 Q 0.079 -0.014 0.088 -0.059000000000000004 Z"/></g><g transform="translate(9.389473684210525,9.317842105263157) scale(0.7,0.7)"><path fill="rgb(153,51,0)" stroke="none" paint-order="stroke fill markers" d=" M 0.28400000000000003 -0.625 Q 0.28400000000000003 -0.594 0.253 -0.578 Q 0.242 -0.5720000000000001 0.231 -0.5720000000000001 Q 0.201 -0.5720000000000001 0.194 -0.599 Q 0.193 -0.604 0.193 -0.608 Q 0.193 -0.636 0.221 -0.653 Q 0.234 -0.661 0.247 -0.661 Q 0.277 -0.661 0.28300000000000003 -0.634 L 0.28300000000000003 -0.633 Q 0.28400000000000003 -0.629 0.28400000000000003 -0.625 M 0.20800000000000002 -0.249 L 0.169 -0.14400000000000002 Q 0.14100000000000001 -0.063 0.14 -0.044 Q 0.14 -0.011 0.164 -0.011 Q 0.227 -0.011 0.262 -0.123 L 0.266 -0.135 Q 0.271 -0.151 0.276 -0.152 L 0.276 -0.153 L 0.281 -0.153 Q 0.293 -0.153 0.293 -0.14300000000000002 Q 0.293 -0.125 0.271 -0.079 Q 0.228 0.011 0.162 0.011 Q 0.109 0.011 0.088 -0.033 Q 0.08 -0.051000000000000004 0.08 -0.07100000000000001 Q 0.08 -0.091 0.10300000000000001 -0.151 Q 0.17300000000000001 -0.339 0.17200000000000001 -0.336 Q 0.183 -0.364 0.183 -0.388 Q 0.183 -0.42 0.158 -0.42 Q 0.10300000000000001 -0.42 0.068 -0.329 L 0.068 -0.328 Q 0.062 -0.313 0.057 -0.296 Q 0.046 -0.279 0.041 -0.278 Q 0.029 -0.278 0.029 -0.28800000000000003 Q 0.029 -0.306 0.051000000000000004 -0.35100000000000003 Q 0.094 -0.442 0.161 -0.442 Q 0.214 -0.442 0.23500000000000001 -0.397 Q 0.243 -0.38 0.243 -0.36 Q 0.243 -0.34 0.23 -0.307 Q 0.213 -0.261 0.20800000000000002 -0.249 Z"/></g></g><path fill="none" stroke="rgb(0,102,51)" paint-order="fill stroke markers" d=" M 37.671477129206124 293.2650589695122 L 38.12500000000003 293.60702524386255 M 38.12500000000003 293.60702524386255 L 40.50781249999997 294.8822366228607 L 41.10351562500003 295.0680918240023 L 41.69921875000003 295.20240210859356 L 42.89062500000003 295.31962147673124 L 44.08203125000003 295.2403184081823 L 45.27343750000003 294.9708471175914 L 46.46484374999997 294.5174923534422 L 47.65625000000003 293.8864693979238 L 50.03906250000003 292.1159327106177 L 52.42187500000003 289.70756998889675 L 54.80468750000003 286.70860270643226 L 57.18750000000003 283.1651408772711 L 59.57031250000003 279.1221830558359 L 61.95312500000003 274.6236163369557 L 64.33593750000003 269.7122163558147 L 66.71875000000003 264.42964728803435 L 69.10156250000003 258.81646184955014 L 71.48437500000003 252.91210129677592 L 73.86718750000003 246.75489542644982 L 76.25000000000003 240.3820625757166 M 76.25000000000003 240.3820625757166 L 78.63281250000003 233.8297096221272 L 81.01562500000003 227.13283198359824 L 83.39843750000003 220.32531361844235 L 85.78125000000003 213.43992702534786 L 88.16406250000003 206.50833324341994 L 90.54687500000003 199.5610818521393 L 92.92968750000003 192.62761097133148 L 95.31250000000003 185.73624726130055 L 97.69531250000003 178.9142059226747 L 100.07812500000003 172.18759069645787 L 102.46093750000003 165.58139386411185 L 104.84375000000003 159.11949624744318 L 107.22656250000003 152.82466720857252 L 109.60937500000003 146.71856465016046 L 111.99218750000003 140.8217350151509 L 114.37500000000003 135.1536132869146 L 116.75781250000003 129.73252298921872 L 119.14062500000003 124.57567618618538 L 121.52343750000003 119.69917348229185 L 123.90625000000003 115.11800402252464 L 126.28906250000003 110.8460454921534 L 128.67187500000003 106.89606411689539 L 131.05468750000003 103.27971466278188 L 133.43750000000003 100.00754043634305 L 135.82031250000003 97.08897328437175 L 138.20312500000003 94.53233359415978 L 140.58593750000003 92.34483029330264 L 142.96874999999997 90.53256084985372 L 145.35156249999997 89.10051127223173 L 147.73437500000003 88.05255610916947 L 150.11718750000003 87.39145844992944 L 152.50000000000003 87.1188699240368 M 152.50000000000003 87.1188699240368 L 154.88281250000003 87.23533070151566 L 157.26562499999997 87.74026949268361 L 159.64843749999997 88.63200354823383 L 162.03125000000003 89.90773865934824 L 164.41406250000003 91.56356915756382 L 166.79687500000003 93.59447791469049 L 169.17968750000003 95.99433634313985 L 171.56250000000003 98.75590439555529 L 173.94531249999997 101.8708305649148 L 176.32812500000003 105.32965188481856 L 178.71093750000003 109.12179392905753 L 181.09375000000003 113.23557081181877 L 183.47656250000003 117.65818518778843 L 185.85937500000003 122.37572825198706 L 188.24218749999997 127.37317973976991 L 190.62499999999997 132.63440792690884 L 193.00781250000003 138.14216962965426 L 195.39062500000003 143.8781102045499 L 197.77343750000003 149.8227635485152 L 200.15625000000003 155.9555520989275 L 202.53906249999997 162.25478683349866 L 204.92187500000009 168.69766727029557 L 207.30468750000003 175.26028146798689 L 209.68750000000003 181.91760602530871 L 212.07031250000003 188.6435060816399 L 214.45312500000003 195.41073531652947 L 216.83593749999997 202.1909359502514 L 219.21874999999997 208.95463874308547 L 221.60156250000003 215.67126299593372 L 223.98437500000003 222.30911654992997 L 226.36718750000003 228.83539578685085 L 228.75000000000003 235.21618562854042 M 228.75000000000003 235.21618562854042 L 231.13281249999997 241.416459537506 L 233.51562499999997 247.4000795164868 L 235.89843749999997 253.12979610865938 L 238.28125000000003 258.56724839761694 L 240.66406250000003 263.6729640071639 L 243.04687500000003 268.4063591017888 L 245.42968750000003 272.7257383861501 L 247.81249999999997 276.58829510540534 M 247.81249999999997 276.58829510540534 L 250.19531249999997 279.95011104492323 L 252.57812499999997 282.7661565307566 L 254.96093750000003 284.99029042902526 L 257.34375 286.57526014649227 M 257.34375 286.57526014649227 L 259.7265625 287.47270163027554 L 260.3222656250001 287.58386222480055 L 260.91796875 287.6481816032192 L 262.1093750000001 287.6331393676632 M 262.1093750000001 287.6331393676632 L 263.5782436879358 287.34291314516037" stroke-opacity="0.6980392156862745" stroke-linecap="round" stroke-linejoin="round" stroke-miterlimit="10" stroke-width="2.5"/><g transform="scale(19,19)"><g transform="translate(4.2105263157894735,13.644197263157896)"><path fill="rgb(0,102,51)" stroke="none" paint-order="stroke fill markers" d=" M 0.088 -0.059000000000000004 L 0.088 -0.059000000000000004 L 0.146 -0.29 Q 0.162 -0.354 0.162 -0.374 Q 0.162 -0.42 0.131 -0.42 Q 0.09 -0.42 0.064 -0.325 Q 0.061 -0.314 0.058 -0.301 Q 0.047 -0.279 0.041 -0.278 Q 0.029 -0.278 0.029 -0.28800000000000003 Q 0.029 -0.304 0.049 -0.36 L 0.049 -0.361 Q 0.049 -0.362 0.05 -0.362 L 0.05 -0.363 L 0.05 -0.364 L 0.059000000000000004 -0.385 Q 0.081 -0.425 0.10400000000000001 -0.435 Q 0.11800000000000001 -0.442 0.134 -0.442 Q 0.19 -0.442 0.215 -0.395 Q 0.224 -0.377 0.226 -0.355 Q 0.29 -0.442 0.382 -0.442 Q 0.468 -0.442 0.491 -0.376 Q 0.497 -0.358 0.497 -0.335 Q 0.497 -0.28400000000000003 0.436 -0.115 Q 0.418 -0.07100000000000001 0.418 -0.044 Q 0.418 -0.011 0.442 -0.011 Q 0.508 -0.011 0.544 -0.135 Q 0.549 -0.151 0.554 -0.152 L 0.554 -0.153 L 0.559 -0.153 Q 0.5710000000000001 -0.153 0.5710000000000001 -0.14300000000000002 Q 0.5710000000000001 -0.126 0.55 -0.08 Q 0.507 0.011 0.44 0.011 Q 0.389 0.011 0.367 -0.032 Q 0.358 -0.05 0.358 -0.07100000000000001 Q 0.358 -0.091 0.368 -0.117 Q 0.433 -0.292 0.433 -0.35000000000000003 Q 0.433 -0.42 0.379 -0.42 Q 0.289 -0.42 0.228 -0.32 Q 0.221 -0.309 0.216 -0.298 L 0.203 -0.248 Q 0.198 -0.225 0.186 -0.181 L 0.164 -0.091 Q 0.147 -0.022 0.145 -0.017 Q 0.136 0.009000000000000001 0.108 0.011 Q 0.083 0.006 0.079 -0.016 Q 0.079 -0.014 0.088 -0.059000000000000004 Z"/></g><g transform="translate(4.810526315789473,13.231305263157896) scale(0.7,0.7)"><path fill="rgb(0,102,51)" stroke="none" paint-order="stroke fill markers" d=" M 0.255 -0.47900000000000004 L 0.076 -0.059000000000000004 Q 0.07 -0.045 0.063 -0.045 Q 0.045 -0.045 0.033 -0.056 Q 0.029 -0.059000000000000004 0.029 -0.063 Q 0.029 -0.065 0.032 -0.077 L 0.153 -0.513 Q 0.166 -0.554 0.197 -0.558 Q 0.202 -0.559 0.20600000000000002 -0.559 Q 0.24 -0.559 0.256 -0.53 Q 0.262 -0.519 0.262 -0.507 Q 0.262 -0.494 0.255 -0.47900000000000004 Z"/></g><g transform="translate(4.810526315789473,13.891414263157897) scale(0.7,0.7)"><path fill="rgb(0,102,51)" stroke="none" paint-order="stroke fill markers" d=" M 0.28400000000000003 -0.625 Q 0.28400000000000003 -0.594 0.253 -0.578 Q 0.242 -0.5720000000000001 0.231 -0.5720000000000001 Q 0.201 -0.5720000000000001 0.194 -0.599 Q 0.193 -0.604 0.193 -0.608 Q 0.193 -0.636 0.221 -0.653 Q 0.234 -0.661 0.247 -0.661 Q 0.277 -0.661 0.28300000000000003 -0.634 L 0.28300000000000003 -0.633 Q 0.28400000000000003 -0.629 0.28400000000000003 -0.625 M 0.20800000000000002 -0.249 L 0.169 -0.14400000000000002 Q 0.14100000000000001 -0.063 0.14 -0.044 Q 0.14 -0.011 0.164 -0.011 Q 0.227 -0.011 0.262 -0.123 L 0.266 -0.135 Q 0.271 -0.151 0.276 -0.152 L 0.276 -0.153 L 0.281 -0.153 Q 0.293 -0.153 0.293 -0.14300000000000002 Q 0.293 -0.125 0.271 -0.079 Q 0.228 0.011 0.162 0.011 Q 0.109 0.011 0.088 -0.033 Q 0.08 -0.051000000000000004 0.08 -0.07100000000000001 Q 0.08 -0.091 0.10300000000000001 -0.151 Q 0.17300000000000001 -0.339 0.17200000000000001 -0.336 Q 0.183 -0.364 0.183 -0.388 Q 0.183 -0.42 0.158 -0.42 Q 0.10300000000000001 -0.42 0.068 -0.329 L 0.068 -0.328 Q 0.062 -0.313 0.057 -0.296 Q 0.046 -0.279 0.041 -0.278 Q 0.029 -0.278 0.029 -0.28800000000000003 Q 0.029 -0.306 0.051000000000000004 -0.35100000000000003 Q 0.094 -0.442 0.161 -0.442 Q 0.214 -0.442 0.23500000000000001 -0.397 Q 0.243 -0.38 0.243 -0.36 Q 0.243 -0.34 0.23 -0.307 Q 0.213 -0.261 0.20800000000000002 -0.249 Z"/></g></g><path fill="rgb(255,255,255)" stroke="none" paint-order="stroke fill markers" d=" M 41.671477242159455 290.22435398388154 C 41.671477242159455 292.4334929832047 39.88061624148263 294.22435398388154 37.671477242159455 294.22435398388154 C 35.46233824283628 294.22435398388154 33.671477242159455 292.4334929832047 33.671477242159455 290.22435398388154 C 33.671477242159455 288.0152149845584 35.46233824283628 286.22435398388154 37.671477242159455 286.22435398388154 C 39.88061624148263 286.22435398388154 41.671477242159455 288.0152149845584 41.671477242159455 290.22435398388154 Z" fill-opacity="1"/><path fill="none" stroke="rgb(0,0,0)" paint-order="fill stroke markers" d=" M 41.671477242159455 290.22435398388154 C 41.671477242159455 292.4334929832047 39.88061624148263 294.22435398388154 37.671477242159455 294.22435398388154 C 35.46233824283628 294.22435398388154 33.671477242159455 292.4334929832047 33.671477242159455 290.22435398388154 C 33.671477242159455 288.0152149845584 35.46233824283628 286.22435398388154 37.671477242159455 286.22435398388154 C 39.88061624148263 286.22435398388154 41.671477242159455 288.0152149845584 41.671477242159455 290.22435398388154 Z" stroke-opacity="1" stroke-linecap="round" stroke-linejoin="round" stroke-miterlimit="10"/><path fill="rgb(255,255,255)" stroke="none" paint-order="stroke fill markers" d=" M 98.14816882536522 205.50931660907275 C 98.14816882536522 207.7184556083959 96.35730782468839 209.50931660907275 94.14816882536522 209.50931660907275 C 91.93902982604205 209.50931660907275 90.14816882536522 207.7184556083959 90.14816882536522 205.50931660907275 C 90.14816882536522 203.30017760974957 91.93902982604205 201.50931660907275 94.14816882536522 201.50931660907275 C 96.35730782468839 201.50931660907275 98.14816882536522 203.30017760974957 98.14816882536522 205.50931660907275 Z" fill-opacity="1"/><path fill="none" stroke="rgb(0,0,0)" paint-order="fill stroke markers" d=" M 98.14816882536522 205.50931660907275 C 98.14816882536522 207.7184556083959 96.35730782468839 209.50931660907275 94.14816882536522 209.50931660907275 C 91.93902982604205 209.50931660907275 90.14816882536522 207.7184556083959 90.14816882536522 205.50931660907275 C 90.14816882536522 203.30017760974957 91.93902982604205 201.50931660907275 94.14816882536522 201.50931660907275 C 96.35730782468839 201.50931660907275 98.14816882536522 203.30017760974957 98.14816882536522 205.50931660907275 Z" stroke-opacity="1" stroke-linecap="round" stroke-linejoin="round" stroke-miterlimit="10"/><path fill="rgb(255,255,255)" stroke="none" paint-order="stroke fill markers" d=" M 154.62486040857098 36.07924185945524 C 154.62486040857098 38.28838085877841 152.83399940789417 40.07924185945524 150.62486040857098 40.07924185945524 C 148.4157214092478 40.07924185945524 146.62486040857098 38.28838085877841 146.62486040857098 36.07924185945524 C 146.62486040857098 33.870102860132064 148.4157214092478 32.07924185945524 150.62486040857098 32.07924185945524 C 152.83399940789417 32.07924185945524 154.62486040857098 33.870102860132064 154.62486040857098 36.07924185945524 Z" fill-opacity="1"/><path fill="none" stroke="rgb(0,0,0)" paint-order="fill stroke markers" d=" M 154.62486040857098 36.07924185945524 C 154.62486040857098 38.28838085877841 152.83399940789417 40.07924185945524 150.62486040857098 40.07924185945524 C 148.4157214092478 40.07924185945524 146.62486040857098 38.28838085877841 146.62486040857098 36.07924185945524 C 146.62486040857098 33.870102860132064 148.4157214092478 32.07924185945524 150.62486040857098 32.07924185945524 C 152.83399940789417 32.07924185945524 154.62486040857098 33.870102860132064 154.62486040857098 36.07924185945524 Z" stroke-opacity="1" stroke-linecap="round" stroke-linejoin="round" stroke-miterlimit="10"/><path fill="rgb(255,255,255)" stroke="none" paint-order="stroke fill markers" d=" M 211.10155199177674 233.74766240067567 C 211.10155199177674 235.95680139999882 209.31069099109993 237.74766240067567 207.10155199177674 237.74766240067567 C 204.89241299245356 237.74766240067567 203.10155199177674 235.95680139999882 203.10155199177674 233.74766240067567 C 203.10155199177674 231.53852340135248 204.89241299245356 229.74766240067567 207.10155199177674 229.74766240067567 C 209.31069099109993 229.74766240067567 211.10155199177674 231.53852340135248 211.10155199177674 233.74766240067567 Z" fill-opacity="1"/><path fill="none" stroke="rgb(0,0,0)" paint-order="fill stroke markers" d=" M 211.10155199177674 233.74766240067567 C 211.10155199177674 235.95680139999882 209.31069099109993 237.74766240067567 207.10155199177674 237.74766240067567 C 204.89241299245356 237.74766240067567 203.10155199177674 235.95680139999882 203.10155199177674 233.74766240067567 C 203.10155199177674 231.53852340135248 204.89241299245356 229.74766240067567 207.10155199177674 229.74766240067567 C 209.31069099109993 229.74766240067567 211.10155199177674 231.53852340135248 211.10155199177674 233.74766240067567 Z" stroke-opacity="1" stroke-linecap="round" stroke-linejoin="round" stroke-miterlimit="10"/><path fill="rgb(255,255,255)" stroke="none" paint-order="stroke fill markers" d=" M 267.5782435749825 261.98600819227863 C 267.5782435749825 264.1951471916018 265.78738257430564 265.98600819227863 263.5782435749825 265.98600819227863 C 261.3691045756593 265.98600819227863 259.5782435749825 264.1951471916018 259.5782435749825 261.98600819227863 C 259.5782435749825 259.7768691929555 261.3691045756593 257.98600819227863 263.5782435749825 257.98600819227863 C 265.78738257430564 257.98600819227863 267.5782435749825 259.7768691929555 267.5782435749825 261.98600819227863 Z" fill-opacity="1"/><path fill="none" stroke="rgb(0,0,0)" paint-order="fill stroke markers" d=" M 267.5782435749825 261.98600819227863 C 267.5782435749825 264.1951471916018 265.78738257430564 265.98600819227863 263.5782435749825 265.98600819227863 C 261.3691045756593 265.98600819227863 259.5782435749825 264.1951471916018 259.5782435749825 261.98600819227863 C 259.5782435749825 259.7768691929555 261.3691045756593 257.98600819227863 263.5782435749825 257.98600819227863 C 265.78738257430564 257.98600819227863 267.5782435749825 259.7768691929555 267.5782435749825 261.98600819227863 Z" stroke-opacity="1" stroke-linecap="round" stroke-linejoin="round" stroke-miterlimit="10"/><path fill="rgb(32,32,32)" stroke="none" paint-order="stroke fill markers" d=" M 41.671477242159455 293.26505905872136 C 41.671477242159455 295.4741980580445 39.88061624148263 297.26505905872136 37.671477242159455 297.26505905872136 C 35.46233824283628 297.26505905872136 33.671477242159455 295.4741980580445 33.671477242159455 293.26505905872136 C 33.671477242159455 291.0559200593982 35.46233824283628 289.26505905872136 37.671477242159455 289.26505905872136 C 39.88061624148263 289.26505905872136 41.671477242159455 291.0559200593982 41.671477242159455 293.26505905872136 Z" fill-opacity="1"/><path fill="rgb(32,32,32)" stroke="none" paint-order="stroke fill markers" d=" M 98.14816882536522 189.0966252680773 C 98.14816882536522 191.3057642674005 96.35730782468839 193.0966252680773 94.14816882536522 193.0966252680773 C 91.93902982604205 193.0966252680773 90.14816882536522 191.3057642674005 90.14816882536522 189.0966252680773 C 90.14816882536522 186.88748626875412 91.93902982604205 185.0966252680773 94.14816882536522 185.0966252680773 C 96.35730782468839 185.0966252680773 98.14816882536522 186.88748626875412 98.14816882536522 189.0966252680773 Z" fill-opacity="1"/><path fill="rgb(32,32,32)" stroke="none" paint-order="stroke fill markers" d=" M 154.62486040857098 87.30077729084374 C 154.62486040857098 89.50991629016691 152.83399940789417 91.30077729084374 150.62486040857098 91.30077729084374 C 148.4157214092478 91.30077729084374 146.62486040857098 89.50991629016691 146.62486040857098 87.30077729084374 C 146.62486040857098 85.09163829152057 148.4157214092478 83.30077729084374 150.62486040857098 83.30077729084374 C 152.83399940789417 83.30077729084374 154.62486040857098 85.09163829152057 154.62486040857098 87.30077729084374 Z" fill-opacity="1"/><path fill="rgb(32,32,32)" stroke="none" paint-order="stroke fill markers" d=" M 211.10155199177674 174.69676321510732 C 211.10155199177674 176.9059022144305 209.31069099109993 178.69676321510732 207.10155199177674 178.69676321510732 C 204.89241299245356 178.69676321510732 203.10155199177674 176.9059022144305 203.10155199177674 174.69676321510732 C 203.10155199177674 172.48762421578414 204.89241299245356 170.69676321510732 207.10155199177674 170.69676321510732 C 209.31069099109993 170.69676321510732 211.10155199177674 172.48762421578414 211.10155199177674 174.69676321510732 Z" fill-opacity="1"/><path fill="rgb(32,32,32)" stroke="none" paint-order="stroke fill markers" d=" M 267.5782435749825 287.3429131793064 C 267.5782435749825 289.55205217862954 265.78738257430564 291.3429131793064 263.5782435749825 291.3429131793064 C 261.3691045756593 291.3429131793064 259.5782435749825 289.55205217862954 259.5782435749825 287.3429131793064 C 259.5782435749825 285.1337741799832 261.3691045756593 283.3429131793064 263.5782435749825 283.3429131793064 C 265.78738257430564 283.3429131793064 267.5782435749825 285.1337741799832 267.5782435749825 287.3429131793064 Z" fill-opacity="1"/></g></g></svg>