<svg version="1.1" xmlns="http://www.w3.org/2000/svg" xmlns:xlink="http://www.w3.org/1999/xlink" width="238" height="194"><defs><clipPath id="ykWHMKfTPhmk"><path fill="none" stroke="none" d=" M 0 0 L 238 0 L 238 194 L 0 194 L 0 0 Z"/></clipPath></defs><g transform="scale(1,1)" clip-path="url(#ykWHMKfTPhmk)"><g><rect fill="rgb(255,255,255)" stroke="none" x="0" y="0" width="238" height="194" fill-opacity="1"/><path fill="none" stroke="rgb(192,192,192)" paint-order="fill stroke markers" d=" M 121.5 0.5 L 121.5 155.5 M 208.5 0.5 L 208.5 155.5" stroke-opacity="1" stroke-linecap="round" stroke-linejoin="round" stroke-miterlimit="10"/><path fill="none" stroke="rgb(192,192,192)" paint-order="fill stroke markers" d=" M 52.5 0.5 L 52.5 155.5 M 69.5 0.5 L 69.5 155.5 M 87.5 0.5 L 87.5 155.5 M 104.5 0.5 L 104.5 155.5 M 139.5 0.5 L 139.5 155.5 M 156.5 0.5 L 156.5 155.5 M 173.5 0.5 L 173.5 155.5 M 190.5 0.5 L 190.5 155.5 M 225.5 0.5 L 225.5 155.5" stroke-opacity="0.23529411764705882" stroke-linecap="round" stroke-linejoin="round" stroke-miterlimit="10"/><path fill="none" stroke="rgb(192,192,192)" paint-order="fill stroke markers" d=" M 35.5 47.5 L 238.5 47.5 M 35.5 47.5 L 238.5 47.5 M 35.5 101.5 L 238.5 101.5" stroke-opacity="1" stroke-linecap="round" stroke-linejoin="round" stroke-miterlimit="10"/><path fill="none" stroke="rgb(192,192,192)" paint-order="fill stroke markers" d=" M 35.5 4.5 L 238.5 4.5 M 35.5 15.5 L 238.5 15.5 M 35.5 26.5 L 238.5 26.5 M 35.5 37.5 L 238.5 37.5 M 35.5 58.5 L 238.5 58.5 M 35.5 69.5 L 238.5 69.5 M 35.5 80.5 L 238.5 80.5 M 35.5 91.5 L 238.5 91.5 M 35.5 112.5 L 238.5 112.5 M 35.5 123.5 L 238.5 123.5 M 35.5 134.5 L 238.5 134.5 M 35.5 145.5 L 238.5 145.5" stroke-opacity="0.23529411764705882" stroke-linecap="round" stroke-linejoin="round" stroke-miterlimit="10"/><path fill="none" stroke="rgb(0,0,0)" paint-order="fill stroke markers" d=" M 35.5 2.5 L 35.5 155.5" stroke-opacity="1" stroke-miterlimit="10"/><path fill="none" stroke="rgb(0,0,0)" paint-order="fill stroke markers" d=" M 35.5 1.5 L 31.5 5.5" stroke-opacity="1" stroke-miterlimit="10"/><path fill="none" stroke="rgb(0,0,0)" paint-order="fill stroke markers" d=" M 35.5 1.5 L 39.5 5.5" stroke-opacity="1" stroke-miterlimit="10"/><g transform="scale(19,19)"><g transform="translate(11.578947368421053,7.917684210526316)"><path fill="rgb(0,0,0)" stroke="none" paint-order="stroke fill markers" d=" M 0.26 -0.229 L 0.46 0 L 0.377 0 L 0.227 -0.188 L 0.082 0 L 0 0 L 0.194 -0.229 L 0.006 -0.444 L 0.089 -0.444 L 0.227 -0.279 L 0.361 -0.444 L 0.443 -0.444 L 0.26 -0.229 Z"/></g></g><path fill="none" stroke="rgb(0,0,0)" paint-order="fill stroke markers" d=" M 35.5 155.5 L 236.5 155.5" stroke-opacity="1" stroke-miterlimit="10"/><path fill="none" stroke="rgb(0,0,0)" paint-order="fill stroke markers" d=" M 237.5 155.5 L 233.5 151.5" stroke-opacity="1" stroke-miterlimit="10"/><path fill="none" stroke="rgb(0,0,0)" paint-order="fill stroke markers" d=" M 237.5 155.5 L 233.5 159.5" stroke-opacity="1" stroke-miterlimit="10"/><text fill="rgb(0,0,0)" stroke="none" font-family="geogebra-serif, serif" font-size="12px" font-style="normal" font-weight="normal" text-decoration="normal" x="119" y="171" text-anchor="start" dominant-baseline="alphabetic" fill-opacity="1">1</text><text fill="none" stroke="rgb(255,255,255)" font-family="geogebra-serif, serif" font-size="12px" font-style="normal" font-weight="normal" text-decoration="normal" x="119" y="171" text-anchor="start" dominant-baseline="alphabetic" stroke-opacity="1" stroke-linejoin="bevel" stroke-miterlimit="10" stroke-width="3">1</text><text fill="rgb(0,0,0)" stroke="none" font-family="geogebra-serif, serif" font-size="12px" font-style="normal" font-weight="normal" text-decoration="normal" x="119" y="171" text-anchor="start" dominant-baseline="alphabetic" fill-opacity="1">1</text><text fill="rgb(0,0,0)" stroke="none" font-family="geogebra-serif, serif" font-size="12px" font-style="normal" font-weight="normal" text-decoration="normal" x="206" y="171" text-anchor="start" dominant-baseline="alphabetic" fill-opacity="1">2</text><text fill="none" stroke="rgb(255,255,255)" font-family="geogebra-serif, serif" font-size="12px" font-style="normal" font-weight="normal" text-decoration="normal" x="206" y="171" text-anchor="start" dominant-baseline="alphabetic" stroke-opacity="1" stroke-linejoin="bevel" stroke-miterlimit="10" stroke-width="3">2</text><text fill="rgb(0,0,0)" stroke="none" font-family="geogebra-serif, serif" font-size="12px" font-style="normal" font-weight="normal" text-decoration="normal" x="206" y="171" text-anchor="start" dominant-baseline="alphabetic" fill-opacity="1">2</text><g transform="scale(19,19)"><g transform="translate(2.210526315789474,1.430842105263158)"><path fill="rgb(0,0,0)" stroke="none" paint-order="stroke fill markers" d=" M 0.352 -0.289 L 0.185 -0.289 L 0.185 0 L 0.096 0 L 0.096 -0.6940000000000001 L 0.34500000000000003 -0.6940000000000001 Q 0.446 -0.6940000000000001 0.514 -0.634 Q 0.582 -0.5740000000000001 0.582 -0.492 Q 0.582 -0.40800000000000003 0.514 -0.34850000000000003 Q 0.446 -0.289 0.352 -0.289 M 0.323 -0.638 L 0.182 -0.638 L 0.182 -0.34700000000000003 L 0.323 -0.34700000000000003 Q 0.406 -0.34700000000000003 0.4535 -0.3885 Q 0.501 -0.43 0.501 -0.492 Q 0.501 -0.557 0.4525 -0.5975 Q 0.404 -0.638 0.323 -0.638 Z"/></g></g><text fill="rgb(0,0,0)" stroke="none" font-family="geogebra-serif, serif" font-size="12px" font-style="normal" font-weight="normal" text-decoration="normal" x="7" y="106" text-anchor="start" dominant-baseline="alphabetic" fill-opacity="1">0.25</text><text fill="none" stroke="rgb(255,255,255)" font-family="geogebra-serif, serif" font-size="12px" font-style="normal" font-weight="normal" text-decoration="normal" x="7" y="106" text-anchor="start" dominant-baseline="alphabetic" stroke-opacity="1" stroke-linejoin="bevel" stroke-miterlimit="10" stroke-width="3">0.25</text><text fill="rgb(0,0,0)" stroke="none" font-family="geogebra-serif, serif" font-size="12px" font-style="normal" font-weight="normal" text-decoration="normal" x="7" y="106" text-anchor="start" dominant-baseline="alphabetic" fill-opacity="1">0.25</text><text fill="rgb(0,0,0)" stroke="none" font-family="geogebra-serif, serif" font-size="12px" font-style="normal" font-weight="normal" text-decoration="normal" x="13" y="52" text-anchor="start" dominant-baseline="alphabetic" fill-opacity="1">0.5</text><text fill="none" stroke="rgb(255,255,255)" font-family="geogebra-serif, serif" font-size="12px" font-style="normal" font-weight="normal" text-decoration="normal" x="13" y="52" text-anchor="start" dominant-baseline="alphabetic" stroke-opacity="1" stroke-linejoin="bevel" stroke-miterlimit="10" stroke-width="3">0.5</text><text fill="rgb(0,0,0)" stroke="none" font-family="geogebra-serif, serif" font-size="12px" font-style="normal" font-weight="normal" text-decoration="normal" x="13" y="52" text-anchor="start" dominant-baseline="alphabetic" fill-opacity="1">0.5</text><text fill="rgb(0,0,0)" stroke="none" font-family="geogebra-serif, serif" font-size="12px" font-style="normal" font-weight="normal" text-decoration="normal" x="22" y="171" text-anchor="start" dominant-baseline="alphabetic" fill-opacity="1">0</text><text fill="none" stroke="rgb(255,255,255)" font-family="geogebra-serif, serif" font-size="12px" font-style="normal" font-weight="normal" text-decoration="normal" x="22" y="171" text-anchor="start" dominant-baseline="alphabetic" stroke-opacity="1" stroke-linejoin="bevel" stroke-miterlimit="10" stroke-width="3">0</text><text fill="rgb(0,0,0)" stroke="none" font-family="geogebra-serif, serif" font-size="12px" font-style="normal" font-weight="normal" text-decoration="normal" x="22" y="171" text-anchor="start" dominant-baseline="alphabetic" fill-opacity="1">0</text><path fill="none" stroke="rgb(0,0,0)" paint-order="fill stroke markers" d=" M 35.463071384665 101.8986892100611 L 121.79354502668514 47.94214318379851" stroke-opacity="0.6980392156862745" stroke-linecap="round" stroke-linejoin="round" stroke-miterlimit="10" stroke-width="3.5"/><path fill="none" stroke="rgb(0,0,0)" paint-order="fill stroke markers" d=" M 121.79354502668514 47.94214318379851 L 208.12401866870528 101.8986892100611" stroke-opacity="0.6980392156862745" stroke-linecap="round" stroke-linejoin="round" stroke-miterlimit="10" stroke-width="3.5"/></g></g></svg>